<mxfile host="app.diagrams.net" modified="2021-10-21T16:03:50.444Z" agent="5.0 (Macintosh; Intel Mac OS X 10_15_7) AppleWebKit/537.36 (KHTML, like Gecko) Chrome/94.0.4606.81 Safari/537.36" etag="DpbTXG8ixsiIlveWJ8fb" version="15.5.8" type="github">
  <diagram id="h7GPxYbChwaNLsouTysn" name="Page-1">
    <mxGraphModel dx="1479" dy="406" grid="1" gridSize="10" guides="1" tooltips="1" connect="1" arrows="1" fold="1" page="1" pageScale="1" pageWidth="827" pageHeight="1169" math="0" shadow="0">
      <root>
        <mxCell id="0" />
        <mxCell id="1" parent="0" />
        <mxCell id="jTadlCwJ3_54qRfa4HgR-54" value="Java&lt;br&gt;Consumer&lt;br&gt;&lt;br&gt;&lt;b&gt;&lt;font style=&quot;font-size: 10px&quot;&gt;EbookGeneratorService&lt;/font&gt;&lt;/b&gt;" style="rounded=1;whiteSpace=wrap;html=1;fillColor=#e1d5e7;strokeColor=#9673a6;strokeWidth=2;" parent="1" vertex="1">
          <mxGeometry x="524" y="1240" width="120" height="60" as="geometry" />
        </mxCell>
        <mxCell id="OSPFFFu9IJp6Sj2-1InF-58" value="&lt;b&gt;&lt;font style=&quot;font-size: 24px&quot;&gt;Messaging&lt;/font&gt;&lt;/b&gt;" style="text;html=1;align=center;verticalAlign=middle;resizable=0;points=[];autosize=1;" parent="1" vertex="1">
          <mxGeometry x="8" y="724" width="140" height="20" as="geometry" />
        </mxCell>
        <mxCell id="OSPFFFu9IJp6Sj2-1InF-59" value="Enterprise Integration Patterns" style="text;html=1;align=center;verticalAlign=middle;resizable=0;points=[];autosize=1;" parent="1" vertex="1">
          <mxGeometry x="96" y="701" width="180" height="20" as="geometry" />
        </mxCell>
        <mxCell id="OSPFFFu9IJp6Sj2-1InF-60" value="Online&lt;br&gt;Book&lt;br&gt;Store" style="rounded=1;whiteSpace=wrap;html=1;fillColor=#d5e8d4;strokeColor=#82b366;" parent="1" vertex="1">
          <mxGeometry x="50" y="790" width="120" height="60" as="geometry" />
        </mxCell>
        <mxCell id="OSPFFFu9IJp6Sj2-1InF-61" value="Ebook&lt;br&gt;Generator" style="rounded=1;whiteSpace=wrap;html=1;fillColor=#d5e8d4;strokeColor=#82b366;" parent="1" vertex="1">
          <mxGeometry x="490" y="790" width="120" height="60" as="geometry" />
        </mxCell>
        <mxCell id="OSPFFFu9IJp6Sj2-1InF-62" value="CasaDoCodigo" style="text;html=1;align=center;verticalAlign=middle;resizable=0;points=[];autosize=1;" parent="1" vertex="1">
          <mxGeometry x="-4" y="756" width="100" height="20" as="geometry" />
        </mxCell>
        <mxCell id="OSPFFFu9IJp6Sj2-1InF-65" value="Consumer" style="text;html=1;align=center;verticalAlign=middle;resizable=0;points=[];autosize=1;" parent="1" vertex="1">
          <mxGeometry x="539" y="861" width="70" height="20" as="geometry" />
        </mxCell>
        <mxCell id="OSPFFFu9IJp6Sj2-1InF-66" value="Producer" style="text;html=1;align=center;verticalAlign=middle;resizable=0;points=[];autosize=1;" parent="1" vertex="1">
          <mxGeometry x="86" y="861" width="60" height="20" as="geometry" />
        </mxCell>
        <mxCell id="OSPFFFu9IJp6Sj2-1InF-68" value="a new deploy&lt;br&gt;bugs&lt;br&gt;network" style="text;html=1;align=center;verticalAlign=middle;resizable=0;points=[];autosize=1;" parent="1" vertex="1">
          <mxGeometry x="615" y="772" width="90" height="50" as="geometry" />
        </mxCell>
        <mxCell id="OSPFFFu9IJp6Sj2-1InF-70" value="Distributed Systems" style="text;html=1;align=center;verticalAlign=middle;resizable=0;points=[];autosize=1;" parent="1" vertex="1">
          <mxGeometry x="300" y="705" width="120" height="20" as="geometry" />
        </mxCell>
        <mxCell id="OSPFFFu9IJp6Sj2-1InF-72" value="Message Channel / ebooks" style="rounded=1;whiteSpace=wrap;html=1;fillColor=#d5e8d4;strokeColor=#82b366;" parent="1" vertex="1">
          <mxGeometry x="220" y="776" width="230" height="124" as="geometry" />
        </mxCell>
        <mxCell id="OSPFFFu9IJp6Sj2-1InF-73" value="Intermediate / Message Broker" style="text;html=1;align=center;verticalAlign=middle;resizable=0;points=[];autosize=1;" parent="1" vertex="1">
          <mxGeometry x="244" y="917" width="180" height="20" as="geometry" />
        </mxCell>
        <mxCell id="OSPFFFu9IJp6Sj2-1InF-76" value="" style="html=1;verticalLabelPosition=bottom;align=center;labelBackgroundColor=#ffffff;verticalAlign=top;strokeWidth=2;strokeColor=#0080F0;shadow=0;dashed=0;shape=mxgraph.ios7.icons.mail;" parent="1" vertex="1">
          <mxGeometry x="526" y="768" width="30" height="16.5" as="geometry" />
        </mxCell>
        <mxCell id="OSPFFFu9IJp6Sj2-1InF-78" value="" style="strokeWidth=1;outlineConnect=0;dashed=0;align=center;html=1;fontSize=8;shape=mxgraph.eip.messageChannel;verticalLabelPosition=bottom;labelBackgroundColor=#ffffff;verticalAlign=top;" parent="1" vertex="1">
          <mxGeometry x="240" y="810" width="190" height="20" as="geometry" />
        </mxCell>
        <mxCell id="OSPFFFu9IJp6Sj2-1InF-74" style="edgeStyle=orthogonalEdgeStyle;rounded=0;orthogonalLoop=1;jettySize=auto;html=1;exitX=1;exitY=0.5;exitDx=0;exitDy=0;entryX=0;entryY=0.5;entryDx=2.7;entryDy=0;entryPerimeter=0;" parent="1" source="OSPFFFu9IJp6Sj2-1InF-60" target="OSPFFFu9IJp6Sj2-1InF-78" edge="1">
          <mxGeometry relative="1" as="geometry" />
        </mxCell>
        <mxCell id="OSPFFFu9IJp6Sj2-1InF-79" style="edgeStyle=orthogonalEdgeStyle;rounded=0;orthogonalLoop=1;jettySize=auto;html=1;exitX=0;exitY=0.5;exitDx=0;exitDy=0;entryX=1;entryY=0.5;entryDx=-2.7;entryDy=0;entryPerimeter=0;" parent="1" source="OSPFFFu9IJp6Sj2-1InF-61" target="OSPFFFu9IJp6Sj2-1InF-78" edge="1">
          <mxGeometry relative="1" as="geometry" />
        </mxCell>
        <mxCell id="OSPFFFu9IJp6Sj2-1InF-80" value="" style="shape=umlActor;verticalLabelPosition=bottom;labelBackgroundColor=#ffffff;verticalAlign=top;html=1;outlineConnect=0;" parent="1" vertex="1">
          <mxGeometry x="4" y="801" width="30" height="60" as="geometry" />
        </mxCell>
        <mxCell id="OSPFFFu9IJp6Sj2-1InF-82" value="" style="html=1;verticalLabelPosition=bottom;align=center;labelBackgroundColor=#ffffff;verticalAlign=top;strokeWidth=2;strokeColor=#0080F0;shadow=0;dashed=0;shape=mxgraph.ios7.icons.mail;" parent="1" vertex="1">
          <mxGeometry x="260" y="788.5" width="30" height="16.5" as="geometry" />
        </mxCell>
        <mxCell id="OSPFFFu9IJp6Sj2-1InF-84" value="Available&lt;br&gt;Selling&amp;nbsp;" style="text;html=1;align=center;verticalAlign=middle;resizable=0;points=[];autosize=1;" parent="1" vertex="1">
          <mxGeometry x="56" y="899" width="60" height="30" as="geometry" />
        </mxCell>
        <mxCell id="OSPFFFu9IJp6Sj2-1InF-85" value="Reliability&lt;br&gt;improved Availability&lt;br&gt;Scalability" style="text;html=1;align=center;verticalAlign=middle;resizable=0;points=[];autosize=1;fontStyle=1" parent="1" vertex="1">
          <mxGeometry x="173" y="990" width="140" height="50" as="geometry" />
        </mxCell>
        <mxCell id="OSPFFFu9IJp6Sj2-1InF-86" value="" style="html=1;verticalLabelPosition=bottom;align=center;labelBackgroundColor=#ffffff;verticalAlign=top;strokeWidth=2;strokeColor=#0080F0;shadow=0;dashed=0;shape=mxgraph.ios7.icons.mail;" parent="1" vertex="1">
          <mxGeometry x="335.5" y="784.5" width="30" height="16.5" as="geometry" />
        </mxCell>
        <mxCell id="OSPFFFu9IJp6Sj2-1InF-87" value="" style="html=1;verticalLabelPosition=bottom;align=center;labelBackgroundColor=#ffffff;verticalAlign=top;strokeWidth=2;strokeColor=#0080F0;shadow=0;dashed=0;shape=mxgraph.ios7.icons.mail;" parent="1" vertex="1">
          <mxGeometry x="539" y="805" width="30" height="16.5" as="geometry" />
        </mxCell>
        <mxCell id="OSPFFFu9IJp6Sj2-1InF-88" value="" style="html=1;verticalLabelPosition=bottom;align=center;labelBackgroundColor=#ffffff;verticalAlign=top;strokeWidth=2;strokeColor=#0080F0;shadow=0;dashed=0;shape=mxgraph.ios7.icons.mail;" parent="1" vertex="1">
          <mxGeometry x="220" y="786.5" width="30" height="16.5" as="geometry" />
        </mxCell>
        <mxCell id="OSPFFFu9IJp6Sj2-1InF-89" value="" style="html=1;verticalLabelPosition=bottom;align=center;labelBackgroundColor=#ffffff;verticalAlign=top;strokeWidth=2;strokeColor=#0080F0;shadow=0;dashed=0;shape=mxgraph.ios7.icons.mail;" parent="1" vertex="1">
          <mxGeometry x="300" y="786.5" width="30" height="16.5" as="geometry" />
        </mxCell>
        <mxCell id="OSPFFFu9IJp6Sj2-1InF-90" value="" style="html=1;verticalLabelPosition=bottom;align=center;labelBackgroundColor=#ffffff;verticalAlign=top;strokeWidth=2;strokeColor=#0080F0;shadow=0;dashed=0;shape=mxgraph.ios7.icons.mail;" parent="1" vertex="1">
          <mxGeometry x="585" y="813.5" width="30" height="16.5" as="geometry" />
        </mxCell>
        <mxCell id="OSPFFFu9IJp6Sj2-1InF-91" value="30 min" style="text;html=1;align=center;verticalAlign=middle;resizable=0;points=[];autosize=1;" parent="1" vertex="1">
          <mxGeometry x="623" y="838" width="50" height="20" as="geometry" />
        </mxCell>
        <mxCell id="OSPFFFu9IJp6Sj2-1InF-95" value="Durable Subscriber&lt;br&gt;Competing Consumers" style="text;html=1;align=center;verticalAlign=middle;resizable=0;points=[];autosize=1;" parent="1" vertex="1">
          <mxGeometry x="510" y="990" width="140" height="30" as="geometry" />
        </mxCell>
        <mxCell id="OSPFFFu9IJp6Sj2-1InF-96" value="Ebook&lt;br&gt;Generator" style="rounded=1;whiteSpace=wrap;html=1;fillColor=#d5e8d4;strokeColor=#82b366;" parent="1" vertex="1">
          <mxGeometry x="500" y="800" width="120" height="60" as="geometry" />
        </mxCell>
        <mxCell id="OSPFFFu9IJp6Sj2-1InF-97" value="Ebook&lt;br&gt;Generator" style="rounded=1;whiteSpace=wrap;html=1;fillColor=#d5e8d4;strokeColor=#82b366;" parent="1" vertex="1">
          <mxGeometry x="510" y="810" width="120" height="60" as="geometry" />
        </mxCell>
        <mxCell id="OSPFFFu9IJp6Sj2-1InF-98" value="EbookGenerator" style="rounded=1;whiteSpace=wrap;html=1;fillColor=#d5e8d4;strokeColor=#82b366;" parent="1" vertex="1">
          <mxGeometry x="520" y="820" width="120" height="60" as="geometry" />
        </mxCell>
        <mxCell id="OSPFFFu9IJp6Sj2-1InF-99" value="Message Broker?&lt;br&gt;- RabbitMQ&lt;br&gt;- IBM MQ&lt;br&gt;- Apache ActiveMQ&lt;br&gt;- Amazom AWS SQS&lt;br&gt;- &lt;b&gt;Apache Kafka&lt;/b&gt;" style="text;html=1;align=center;verticalAlign=middle;resizable=0;points=[];autosize=1;" parent="1" vertex="1">
          <mxGeometry x="358" y="973" width="130" height="90" as="geometry" />
        </mxCell>
        <mxCell id="OSPFFFu9IJp6Sj2-1InF-102" style="edgeStyle=orthogonalEdgeStyle;rounded=0;orthogonalLoop=1;jettySize=auto;html=1;exitX=0;exitY=0.5;exitDx=0;exitDy=0;entryX=0;entryY=1;entryDx=180;entryDy=0;entryPerimeter=0;" parent="1" source="OSPFFFu9IJp6Sj2-1InF-101" target="OSPFFFu9IJp6Sj2-1InF-78" edge="1">
          <mxGeometry relative="1" as="geometry" />
        </mxCell>
        <mxCell id="OSPFFFu9IJp6Sj2-1InF-101" value="Accounting Systems" style="rounded=1;whiteSpace=wrap;html=1;fillColor=#d5e8d4;strokeColor=#82b366;" parent="1" vertex="1">
          <mxGeometry x="510" y="900" width="120" height="60" as="geometry" />
        </mxCell>
        <mxCell id="OSPFFFu9IJp6Sj2-1InF-104" value="" style="html=1;verticalLabelPosition=bottom;align=center;labelBackgroundColor=#ffffff;verticalAlign=top;strokeWidth=2;strokeColor=#0080F0;shadow=0;dashed=0;shape=mxgraph.ios7.icons.mail;" parent="1" vertex="1">
          <mxGeometry x="540" y="900" width="30" height="16.5" as="geometry" />
        </mxCell>
        <mxCell id="OSPFFFu9IJp6Sj2-1InF-105" value="OrderFinished" style="text;html=1;align=center;verticalAlign=middle;resizable=0;points=[];autosize=1;" parent="1" vertex="1">
          <mxGeometry x="130" y="760" width="90" height="20" as="geometry" />
        </mxCell>
        <mxCell id="OSPFFFu9IJp6Sj2-1InF-106" value="Domain Events" style="text;html=1;align=center;verticalAlign=middle;resizable=0;points=[];autosize=1;" parent="1" vertex="1">
          <mxGeometry x="163" y="743" width="100" height="20" as="geometry" />
        </mxCell>
        <mxCell id="OSPFFFu9IJp6Sj2-1InF-107" value="OrderFinished" style="text;html=1;align=center;verticalAlign=middle;resizable=0;points=[];autosize=1;" parent="1" vertex="1">
          <mxGeometry x="470" y="736" width="90" height="20" as="geometry" />
        </mxCell>
        <mxCell id="OSPFFFu9IJp6Sj2-1InF-108" value="OrderFinished" style="text;html=1;align=center;verticalAlign=middle;resizable=0;points=[];autosize=1;" parent="1" vertex="1">
          <mxGeometry x="480" y="879" width="90" height="20" as="geometry" />
        </mxCell>
        <mxCell id="OSPFFFu9IJp6Sj2-1InF-109" value="Message ---&amp;gt; Record&lt;br&gt;Messaging ----&amp;gt; Stream Platform" style="text;html=1;align=center;verticalAlign=middle;resizable=0;points=[];autosize=1;" parent="1" vertex="1">
          <mxGeometry x="54" y="1118" width="190" height="30" as="geometry" />
        </mxCell>
        <mxCell id="OSPFFFu9IJp6Sj2-1InF-110" value="keys, values, timestamps" style="text;html=1;align=center;verticalAlign=middle;resizable=0;points=[];autosize=1;" parent="1" vertex="1">
          <mxGeometry x="251" y="1118" width="150" height="20" as="geometry" />
        </mxCell>
        <mxCell id="OSPFFFu9IJp6Sj2-1InF-113" style="edgeStyle=orthogonalEdgeStyle;rounded=0;orthogonalLoop=1;jettySize=auto;html=1;exitX=1;exitY=0.5;exitDx=0;exitDy=0;entryX=0;entryY=0.5;entryDx=0;entryDy=0;" parent="1" source="OSPFFFu9IJp6Sj2-1InF-111" target="OSPFFFu9IJp6Sj2-1InF-112" edge="1">
          <mxGeometry relative="1" as="geometry" />
        </mxCell>
        <mxCell id="OSPFFFu9IJp6Sj2-1InF-111" value="Kafka&lt;br&gt;&lt;br&gt;9092" style="rounded=1;whiteSpace=wrap;html=1;fillColor=#d5e8d4;strokeColor=#82b366;" parent="1" vertex="1">
          <mxGeometry x="496" y="30" width="120" height="60" as="geometry" />
        </mxCell>
        <mxCell id="OSPFFFu9IJp6Sj2-1InF-112" value="Zookeeper" style="rounded=1;whiteSpace=wrap;html=1;fillColor=#d5e8d4;strokeColor=#82b366;" parent="1" vertex="1">
          <mxGeometry x="514" y="80" width="120" height="60" as="geometry" />
        </mxCell>
        <mxCell id="OSPFFFu9IJp6Sj2-1InF-117" value="Java&lt;br&gt;Producer&lt;br&gt;&lt;br&gt;&lt;b&gt;NewOrderMain&lt;/b&gt;" style="rounded=1;whiteSpace=wrap;html=1;" parent="1" vertex="1">
          <mxGeometry x="-149" y="1250" width="120" height="60" as="geometry" />
        </mxCell>
        <mxCell id="OSPFFFu9IJp6Sj2-1InF-119" value="Java&lt;br&gt;Consumer&lt;br&gt;&lt;br&gt;&lt;b&gt;&lt;font style=&quot;font-size: 10px&quot;&gt;EbookGeneratorService&lt;/font&gt;&lt;/b&gt;" style="rounded=1;whiteSpace=wrap;html=1;fillColor=#e1d5e7;strokeColor=#9673a6;strokeWidth=2;" parent="1" vertex="1">
          <mxGeometry x="514" y="1220" width="120" height="60" as="geometry" />
        </mxCell>
        <mxCell id="OSPFFFu9IJp6Sj2-1InF-121" value="&lt;font style=&quot;font-size: 9px;&quot;&gt;Topic / user-created&lt;/font&gt;" style="strokeWidth=1;outlineConnect=0;dashed=0;align=center;html=1;fontSize=9;shape=mxgraph.eip.messageChannel;verticalLabelPosition=bottom;labelBackgroundColor=#ffffff;verticalAlign=top;fillColor=default;strokeColor=none;" parent="1" vertex="1">
          <mxGeometry x="-33" y="175" width="68" height="20" as="geometry" />
        </mxCell>
        <mxCell id="OSPFFFu9IJp6Sj2-1InF-128" value="stored for 7 days" style="text;html=1;align=center;verticalAlign=middle;resizable=0;points=[];autosize=1;" parent="1" vertex="1">
          <mxGeometry x="94" y="1450" width="100" height="20" as="geometry" />
        </mxCell>
        <mxCell id="OSPFFFu9IJp6Sj2-1InF-129" value="Standard Messaging Protocols&lt;br&gt;MQTT (IoT)&lt;br&gt;STOMP (text-based)&lt;br&gt;AMQP" style="text;html=1;align=center;verticalAlign=middle;resizable=0;points=[];autosize=1;" parent="1" vertex="1">
          <mxGeometry x="484" y="1050" width="180" height="60" as="geometry" />
        </mxCell>
        <mxCell id="OSPFFFu9IJp6Sj2-1InF-130" value="Kafka has its own TCP protocol" style="text;html=1;align=center;verticalAlign=middle;resizable=0;points=[];autosize=1;" parent="1" vertex="1">
          <mxGeometry x="450" y="1137" width="180" height="20" as="geometry" />
        </mxCell>
        <mxCell id="jTadlCwJ3_54qRfa4HgR-1" value="J" style="ellipse;whiteSpace=wrap;html=1;aspect=fixed;" parent="1" vertex="1">
          <mxGeometry x="-60" y="1260" width="20" height="20" as="geometry" />
        </mxCell>
        <mxCell id="jTadlCwJ3_54qRfa4HgR-4" value="J" style="ellipse;whiteSpace=wrap;html=1;aspect=fixed;fillColor=#e1d5e7;strokeColor=#9673a6;" parent="1" vertex="1">
          <mxGeometry x="519" y="1230" width="20" height="20" as="geometry" />
        </mxCell>
        <mxCell id="jTadlCwJ3_54qRfa4HgR-5" value="Java -&amp;gt; bytes&lt;br&gt;Serialization" style="text;html=1;align=center;verticalAlign=middle;resizable=0;points=[];autosize=1;" parent="1" vertex="1">
          <mxGeometry x="-56" y="1215" width="90" height="30" as="geometry" />
        </mxCell>
        <mxCell id="jTadlCwJ3_54qRfa4HgR-6" value="bytes -&amp;gt; Java&lt;br&gt;Deserialization" style="text;html=1;align=center;verticalAlign=middle;resizable=0;points=[];autosize=1;" parent="1" vertex="1">
          <mxGeometry x="450" y="1180" width="90" height="30" as="geometry" />
        </mxCell>
        <mxCell id="jTadlCwJ3_54qRfa4HgR-13" value="Java&lt;br&gt;Consumer&lt;br&gt;&lt;br&gt;&lt;b&gt;&lt;font style=&quot;font-size: 10px&quot;&gt;EmailService&lt;/font&gt;&lt;/b&gt;" style="rounded=1;whiteSpace=wrap;html=1;fillColor=#fff2cc;strokeColor=#d6b656;strokeWidth=2;" parent="1" vertex="1">
          <mxGeometry x="519" y="1340" width="120" height="60" as="geometry" />
        </mxCell>
        <mxCell id="jTadlCwJ3_54qRfa4HgR-24" value="Java&lt;br&gt;Consumer&lt;br&gt;&lt;br&gt;&lt;b&gt;&lt;font style=&quot;font-size: 10px&quot;&gt;LogService&lt;/font&gt;&lt;/b&gt;" style="rounded=1;whiteSpace=wrap;html=1;fillColor=#dae8fc;strokeColor=#6c8ebf;strokeWidth=2;" parent="1" vertex="1">
          <mxGeometry x="519" y="1440" width="120" height="60" as="geometry" />
        </mxCell>
        <mxCell id="jTadlCwJ3_54qRfa4HgR-28" value="email" style="html=1;verticalLabelPosition=bottom;align=center;labelBackgroundColor=#ffffff;verticalAlign=top;strokeWidth=2;strokeColor=#d6b656;shadow=0;dashed=0;shape=mxgraph.ios7.icons.mail;fillColor=#fff2cc;" parent="1" vertex="1">
          <mxGeometry x="510" y="1500" width="30" height="16.5" as="geometry" />
        </mxCell>
        <mxCell id="jTadlCwJ3_54qRfa4HgR-32" value="order" style="html=1;verticalLabelPosition=bottom;align=center;labelBackgroundColor=#ffffff;verticalAlign=top;strokeWidth=2;strokeColor=#9673a6;shadow=0;dashed=0;shape=mxgraph.ios7.icons.mail;fillColor=#e1d5e7;" parent="1" vertex="1">
          <mxGeometry x="509" y="1461.75" width="30" height="16.5" as="geometry" />
        </mxCell>
        <mxCell id="jTadlCwJ3_54qRfa4HgR-33" value="&lt;b&gt;Group&lt;/b&gt;&lt;br&gt;&lt;b&gt;Partition&lt;/b&gt;&lt;br&gt;&lt;b&gt;Offset&lt;/b&gt;" style="text;html=1;align=center;verticalAlign=middle;resizable=0;points=[];autosize=1;" parent="1" vertex="1">
          <mxGeometry x="194" y="1720" width="60" height="50" as="geometry" />
        </mxCell>
        <mxCell id="jTadlCwJ3_54qRfa4HgR-37" value="order1" style="html=1;verticalLabelPosition=bottom;align=center;labelBackgroundColor=#ffffff;verticalAlign=top;strokeWidth=2;strokeColor=#9673a6;shadow=0;dashed=0;shape=mxgraph.ios7.icons.mail;fillColor=#e1d5e7;" parent="1" vertex="1">
          <mxGeometry x="480" y="1210" width="30" height="20" as="geometry" />
        </mxCell>
        <mxCell id="jTadlCwJ3_54qRfa4HgR-38" value="email" style="html=1;verticalLabelPosition=bottom;align=center;labelBackgroundColor=#ffffff;verticalAlign=top;strokeWidth=2;strokeColor=#d6b656;shadow=0;dashed=0;shape=mxgraph.ios7.icons.mail;fillColor=#fff2cc;" parent="1" vertex="1">
          <mxGeometry x="509" y="1323.5" width="30" height="16.5" as="geometry" />
        </mxCell>
        <mxCell id="jTadlCwJ3_54qRfa4HgR-39" value="Increase in LOAD (Black Friday)" style="text;html=1;align=center;verticalAlign=middle;resizable=0;points=[];autosize=1;" parent="1" vertex="1">
          <mxGeometry x="-210" y="1180" width="190" height="20" as="geometry" />
        </mxCell>
        <mxCell id="jTadlCwJ3_54qRfa4HgR-42" value="order2" style="html=1;verticalLabelPosition=bottom;align=center;labelBackgroundColor=#ffffff;verticalAlign=top;strokeWidth=2;strokeColor=#9673a6;shadow=0;dashed=0;shape=mxgraph.ios7.icons.mail;fillColor=#e1d5e7;" parent="1" vertex="1">
          <mxGeometry x="450" y="1211.75" width="30" height="16.5" as="geometry" />
        </mxCell>
        <mxCell id="jTadlCwJ3_54qRfa4HgR-43" value="order" style="html=1;verticalLabelPosition=bottom;align=center;labelBackgroundColor=#ffffff;verticalAlign=top;strokeWidth=2;strokeColor=#9673a6;shadow=0;dashed=0;shape=mxgraph.ios7.icons.mail;fillColor=#e1d5e7;" parent="1" vertex="1">
          <mxGeometry x="386.5" y="1210" width="30" height="16.5" as="geometry" />
        </mxCell>
        <mxCell id="jTadlCwJ3_54qRfa4HgR-44" value="order" style="html=1;verticalLabelPosition=bottom;align=center;labelBackgroundColor=#ffffff;verticalAlign=top;strokeWidth=2;strokeColor=#9673a6;shadow=0;dashed=0;shape=mxgraph.ios7.icons.mail;fillColor=#e1d5e7;" parent="1" vertex="1">
          <mxGeometry x="426" y="1210" width="30" height="16.5" as="geometry" />
        </mxCell>
        <mxCell id="jTadlCwJ3_54qRfa4HgR-46" value="Order will get stuck" style="text;html=1;align=center;verticalAlign=middle;resizable=0;points=[];autosize=1;" parent="1" vertex="1">
          <mxGeometry x="645.5" y="1203.5" width="120" height="20" as="geometry" />
        </mxCell>
        <mxCell id="jTadlCwJ3_54qRfa4HgR-47" value="Throughput / &quot;Flow&quot;" style="text;html=1;align=center;verticalAlign=middle;resizable=0;points=[];autosize=1;" parent="1" vertex="1">
          <mxGeometry x="645.5" y="1223.5" width="120" height="20" as="geometry" />
        </mxCell>
        <mxCell id="jTadlCwJ3_54qRfa4HgR-48" value="10 min" style="text;html=1;align=center;verticalAlign=middle;resizable=0;points=[];autosize=1;" parent="1" vertex="1">
          <mxGeometry x="600" y="1190" width="50" height="20" as="geometry" />
        </mxCell>
        <mxCell id="jTadlCwJ3_54qRfa4HgR-50" value="Scalability" style="text;html=1;align=center;verticalAlign=middle;resizable=0;points=[];autosize=1;fontStyle=1" parent="1" vertex="1">
          <mxGeometry x="738" y="1180" width="70" height="20" as="geometry" />
        </mxCell>
        <mxCell id="jTadlCwJ3_54qRfa4HgR-51" value="More Instances of a Service&lt;br&gt;&lt;b&gt;Scale SIDEWAYS (HORIZONTAL)&lt;/b&gt;" style="text;html=1;align=center;verticalAlign=middle;resizable=0;points=[];autosize=1;" parent="1" vertex="1">
          <mxGeometry x="640" y="1255" width="200" height="30" as="geometry" />
        </mxCell>
        <mxCell id="jTadlCwJ3_54qRfa4HgR-55" value="The LOAD wasn&#39;t balanced" style="text;html=1;align=center;verticalAlign=middle;resizable=0;points=[];autosize=1;" parent="1" vertex="1">
          <mxGeometry x="705" y="1300" width="160" height="20" as="geometry" />
        </mxCell>
        <mxCell id="jTadlCwJ3_54qRfa4HgR-56" value="By default -&amp;gt; has 1 partition only" style="text;html=1;align=center;verticalAlign=middle;resizable=0;points=[];autosize=1;" parent="1" vertex="1">
          <mxGeometry x="401" y="1582" width="190" height="20" as="geometry" />
        </mxCell>
        <mxCell id="jTadlCwJ3_54qRfa4HgR-61" style="edgeStyle=orthogonalEdgeStyle;rounded=0;orthogonalLoop=1;jettySize=auto;html=1;exitX=1;exitY=0.5;exitDx=0;exitDy=0;entryX=0;entryY=0.5;entryDx=0;entryDy=0;strokeWidth=2;" parent="1" source="jTadlCwJ3_54qRfa4HgR-57" target="jTadlCwJ3_54qRfa4HgR-58" edge="1">
          <mxGeometry relative="1" as="geometry" />
        </mxCell>
        <mxCell id="jTadlCwJ3_54qRfa4HgR-57" value="NewOrderMain" style="rounded=1;whiteSpace=wrap;html=1;strokeWidth=2;" parent="1" vertex="1">
          <mxGeometry x="80" y="1840" width="120" height="60" as="geometry" />
        </mxCell>
        <mxCell id="jTadlCwJ3_54qRfa4HgR-58" value="BOOK_ORDERS" style="rounded=1;whiteSpace=wrap;html=1;strokeWidth=2;verticalAlign=top;" parent="1" vertex="1">
          <mxGeometry x="250" y="1770" width="330" height="250" as="geometry" />
        </mxCell>
        <mxCell id="jTadlCwJ3_54qRfa4HgR-59" value="" style="rounded=0;whiteSpace=wrap;html=1;strokeWidth=2;fillColor=#dae8fc;strokeColor=#6c8ebf;" parent="1" vertex="1">
          <mxGeometry x="274" y="1810" width="276" height="60" as="geometry" />
        </mxCell>
        <mxCell id="PPKRKpOMNKUQliqkGIs--38" style="edgeStyle=orthogonalEdgeStyle;rounded=0;orthogonalLoop=1;jettySize=auto;html=1;exitX=0;exitY=0.5;exitDx=0;exitDy=0;entryX=1;entryY=0.5;entryDx=0;entryDy=0;strokeWidth=2;fillColor=#dae8fc;strokeColor=#6c8ebf;" parent="1" source="jTadlCwJ3_54qRfa4HgR-67" target="jTadlCwJ3_54qRfa4HgR-59" edge="1">
          <mxGeometry relative="1" as="geometry" />
        </mxCell>
        <mxCell id="jTadlCwJ3_54qRfa4HgR-67" value="EbookGeneratorService" style="rounded=1;whiteSpace=wrap;html=1;strokeWidth=2;fillColor=#dae8fc;strokeColor=#6c8ebf;" parent="1" vertex="1">
          <mxGeometry x="664" y="1770" width="174" height="70" as="geometry" />
        </mxCell>
        <mxCell id="PPKRKpOMNKUQliqkGIs--40" style="edgeStyle=orthogonalEdgeStyle;rounded=0;orthogonalLoop=1;jettySize=auto;html=1;exitX=0;exitY=0.5;exitDx=0;exitDy=0;entryX=1;entryY=0.5;entryDx=0;entryDy=0;strokeWidth=2;fillColor=#ffe6cc;strokeColor=#d79b00;" parent="1" source="jTadlCwJ3_54qRfa4HgR-69" target="jTadlCwJ3_54qRfa4HgR-72" edge="1">
          <mxGeometry relative="1" as="geometry" />
        </mxCell>
        <mxCell id="jTadlCwJ3_54qRfa4HgR-69" value="EbookGeneratorService (1)" style="rounded=1;whiteSpace=wrap;html=1;strokeWidth=2;fillColor=#ffe6cc;strokeColor=#d79b00;" parent="1" vertex="1">
          <mxGeometry x="660" y="1850" width="174" height="70" as="geometry" />
        </mxCell>
        <mxCell id="jTadlCwJ3_54qRfa4HgR-70" value="N partitions and N + 1 Consumers in a group =&amp;gt; one consumer will be idle" style="text;html=1;align=center;verticalAlign=middle;resizable=0;points=[];autosize=1;" parent="1" vertex="1">
          <mxGeometry x="147" y="2075" width="410" height="20" as="geometry" />
        </mxCell>
        <mxCell id="jTadlCwJ3_54qRfa4HgR-71" value="" style="rounded=0;whiteSpace=wrap;html=1;strokeWidth=2;fillColor=#e1d5e7;strokeColor=#9673a6;" parent="1" vertex="1">
          <mxGeometry x="274" y="1880" width="276" height="60" as="geometry" />
        </mxCell>
        <mxCell id="jTadlCwJ3_54qRfa4HgR-72" value="" style="rounded=0;whiteSpace=wrap;html=1;strokeWidth=2;fillColor=#fff2cc;strokeColor=#d6b656;" parent="1" vertex="1">
          <mxGeometry x="274" y="1950" width="276" height="60" as="geometry" />
        </mxCell>
        <mxCell id="jTadlCwJ3_54qRfa4HgR-73" value="0" style="text;html=1;align=center;verticalAlign=middle;resizable=0;points=[];autosize=1;" parent="1" vertex="1">
          <mxGeometry x="251" y="1820" width="20" height="20" as="geometry" />
        </mxCell>
        <mxCell id="jTadlCwJ3_54qRfa4HgR-74" value="1" style="text;html=1;align=center;verticalAlign=middle;resizable=0;points=[];autosize=1;" parent="1" vertex="1">
          <mxGeometry x="250" y="1890" width="20" height="20" as="geometry" />
        </mxCell>
        <mxCell id="jTadlCwJ3_54qRfa4HgR-75" value="2" style="text;html=1;align=center;verticalAlign=middle;resizable=0;points=[];autosize=1;" parent="1" vertex="1">
          <mxGeometry x="254" y="1970" width="20" height="20" as="geometry" />
        </mxCell>
        <mxCell id="jTadlCwJ3_54qRfa4HgR-64" value="order" style="html=1;verticalLabelPosition=bottom;align=center;labelBackgroundColor=#ffffff;verticalAlign=top;strokeWidth=2;strokeColor=#82b366;shadow=0;dashed=0;shape=mxgraph.ios7.icons.mail;fillColor=#d5e8d4;" parent="1" vertex="1">
          <mxGeometry x="403" y="1900" width="30" height="20" as="geometry" />
        </mxCell>
        <mxCell id="jTadlCwJ3_54qRfa4HgR-65" value="order" style="html=1;verticalLabelPosition=bottom;align=center;labelBackgroundColor=#ffffff;verticalAlign=top;strokeWidth=2;strokeColor=#82b366;shadow=0;dashed=0;shape=mxgraph.ios7.icons.mail;fillColor=#d5e8d4;" parent="1" vertex="1">
          <mxGeometry x="489" y="1900" width="30" height="20" as="geometry" />
        </mxCell>
        <mxCell id="jTadlCwJ3_54qRfa4HgR-66" value="order" style="html=1;verticalLabelPosition=bottom;align=center;labelBackgroundColor=#ffffff;verticalAlign=top;strokeWidth=2;strokeColor=#82b366;shadow=0;dashed=0;shape=mxgraph.ios7.icons.mail;fillColor=#d5e8d4;" parent="1" vertex="1">
          <mxGeometry x="447" y="1900" width="30" height="20" as="geometry" />
        </mxCell>
        <mxCell id="jTadlCwJ3_54qRfa4HgR-79" value="&lt;b&gt;Consumer Group&lt;br&gt;(group.id)&lt;br&gt;&lt;/b&gt;" style="text;html=1;align=center;verticalAlign=middle;resizable=0;points=[];autosize=1;" parent="1" vertex="1">
          <mxGeometry x="656" y="1994" width="110" height="30" as="geometry" />
        </mxCell>
        <mxCell id="jTadlCwJ3_54qRfa4HgR-80" value="EbookGeneratorService -&amp;gt;&amp;nbsp;" style="text;html=1;align=center;verticalAlign=middle;resizable=0;points=[];autosize=1;" parent="1" vertex="1">
          <mxGeometry x="609" y="2040" width="160" height="20" as="geometry" />
        </mxCell>
        <mxCell id="jTadlCwJ3_54qRfa4HgR-83" value="Records are stored in Kafka&lt;br&gt;stores which Group consumed which offsets" style="text;html=1;align=center;verticalAlign=middle;resizable=0;points=[];autosize=1;" parent="1" vertex="1">
          <mxGeometry x="141" y="2037" width="250" height="30" as="geometry" />
        </mxCell>
        <mxCell id="jTadlCwJ3_54qRfa4HgR-62" value="order" style="html=1;verticalLabelPosition=bottom;align=center;labelBackgroundColor=#ffffff;verticalAlign=top;strokeWidth=2;strokeColor=#82b366;shadow=0;dashed=0;shape=mxgraph.ios7.icons.mail;fillColor=#d5e8d4;" parent="1" vertex="1">
          <mxGeometry x="484" y="1970" width="30" height="20" as="geometry" />
        </mxCell>
        <mxCell id="jTadlCwJ3_54qRfa4HgR-63" value="order" style="html=1;verticalLabelPosition=bottom;align=center;labelBackgroundColor=#ffffff;verticalAlign=top;strokeWidth=2;strokeColor=#82b366;shadow=0;dashed=0;shape=mxgraph.ios7.icons.mail;fillColor=#d5e8d4;" parent="1" vertex="1">
          <mxGeometry x="444" y="1970" width="30" height="20" as="geometry" />
        </mxCell>
        <mxCell id="jTadlCwJ3_54qRfa4HgR-84" value="order" style="html=1;verticalLabelPosition=bottom;align=center;labelBackgroundColor=#ffffff;verticalAlign=top;strokeWidth=2;strokeColor=#82b366;shadow=0;dashed=0;shape=mxgraph.ios7.icons.mail;fillColor=#d5e8d4;" parent="1" vertex="1">
          <mxGeometry x="349.5" y="1970" width="30" height="20" as="geometry" />
        </mxCell>
        <mxCell id="jTadlCwJ3_54qRfa4HgR-85" value="order" style="html=1;verticalLabelPosition=bottom;align=center;labelBackgroundColor=#ffffff;verticalAlign=top;strokeWidth=2;strokeColor=#82b366;shadow=0;dashed=0;shape=mxgraph.ios7.icons.mail;fillColor=#d5e8d4;" parent="1" vertex="1">
          <mxGeometry x="400" y="1970" width="30" height="20" as="geometry" />
        </mxCell>
        <mxCell id="PPKRKpOMNKUQliqkGIs--2" value="&lt;font style=&quot;font-size: 18px&quot;&gt;Same Key -&amp;gt; Same Partition -&amp;gt; Same instance in a group&lt;/font&gt;" style="text;html=1;align=center;verticalAlign=middle;resizable=0;points=[];autosize=1;" parent="1" vertex="1">
          <mxGeometry x="138" y="2160" width="470" height="20" as="geometry" />
        </mxCell>
        <mxCell id="PPKRKpOMNKUQliqkGIs--3" value="JUST MAINTAIN ORDER OF RECORDS in the SAME partition" style="text;html=1;align=center;verticalAlign=middle;resizable=0;points=[];autosize=1;" parent="1" vertex="1">
          <mxGeometry x="483" y="2114" width="350" height="20" as="geometry" />
        </mxCell>
        <mxCell id="PPKRKpOMNKUQliqkGIs--10" value="&lt;font style=&quot;font-size: 18px&quot;&gt;Same key -&amp;gt; ORDER IS MAINTAINED&lt;/font&gt;" style="text;html=1;align=center;verticalAlign=middle;resizable=0;points=[];autosize=1;" parent="1" vertex="1">
          <mxGeometry x="64" y="2200" width="320" height="20" as="geometry" />
        </mxCell>
        <mxCell id="PPKRKpOMNKUQliqkGIs--18" value="Text" style="text;html=1;align=center;verticalAlign=middle;resizable=0;points=[];autosize=1;" parent="1" vertex="1">
          <mxGeometry x="145" y="1766" width="40" height="20" as="geometry" />
        </mxCell>
        <mxCell id="PPKRKpOMNKUQliqkGIs--19" value="&lt;font style=&quot;font-size: 48px&quot;&gt;When you want to paralelize -&amp;gt; different keys&lt;br&gt;When you want to keep order -&amp;gt; same keys&lt;br&gt;&lt;/font&gt;" style="text;html=1;align=center;verticalAlign=middle;resizable=0;points=[];autosize=1;" parent="1" vertex="1">
          <mxGeometry x="-354" y="2245" width="970" height="60" as="geometry" />
        </mxCell>
        <mxCell id="PPKRKpOMNKUQliqkGIs--20" value="&lt;font style=&quot;font-size: 36px&quot;&gt;Why would I want to keep order of records in a partition?&lt;br&gt;- Kafka as an Event Store in a Event Sourcing system&lt;br&gt;&lt;/font&gt;" style="text;html=1;align=center;verticalAlign=middle;resizable=0;points=[];autosize=1;" parent="1" vertex="1">
          <mxGeometry x="-331" y="2410" width="920" height="50" as="geometry" />
        </mxCell>
        <mxCell id="PPKRKpOMNKUQliqkGIs--21" value="store the Domain Events of an Aggregate&lt;br&gt;&lt;br&gt;OrderCreated, OrderPayed, OrderFinished, OrderEmailSent for userId 999 -&amp;gt; Partition 0&lt;br&gt;OrderCreated, OrderPayed, OrderFinished, OrderEmailSent for userId 777 -&amp;gt; Partition 1" style="text;html=1;align=center;verticalAlign=middle;resizable=0;points=[];autosize=1;" parent="1" vertex="1">
          <mxGeometry x="75" y="2470" width="480" height="60" as="geometry" />
        </mxCell>
        <mxCell id="PPKRKpOMNKUQliqkGIs--22" value="retention of records (7 days by default)" style="text;html=1;align=center;verticalAlign=middle;resizable=0;points=[];autosize=1;" parent="1" vertex="1">
          <mxGeometry x="-136" y="2482" width="220" height="20" as="geometry" />
        </mxCell>
        <mxCell id="PPKRKpOMNKUQliqkGIs--23" value="&lt;font&gt;&lt;span style=&quot;font-size: 36px&quot;&gt;- Fraud Detector for a Credit Card&lt;/span&gt;&lt;br&gt;&lt;font size=&quot;3&quot;&gt;- if the same Credit Card number is used for orders with less than 30 seconds from one another its a Fraud&lt;/font&gt;&lt;/font&gt;&lt;font style=&quot;font-size: 36px&quot;&gt;&amp;nbsp;&lt;/font&gt;" style="text;html=1;strokeColor=none;fillColor=none;align=center;verticalAlign=middle;whiteSpace=wrap;rounded=0;" parent="1" vertex="1">
          <mxGeometry x="-290" y="2540" width="640" height="20" as="geometry" />
        </mxCell>
        <mxCell id="PPKRKpOMNKUQliqkGIs--24" value="FraudDetectorService" style="rounded=1;whiteSpace=wrap;html=1;" parent="1" vertex="1">
          <mxGeometry x="266" y="2630" width="120" height="60" as="geometry" />
        </mxCell>
        <mxCell id="PPKRKpOMNKUQliqkGIs--33" style="edgeStyle=orthogonalEdgeStyle;rounded=0;orthogonalLoop=1;jettySize=auto;html=1;exitX=1;exitY=0.5;exitDx=0;exitDy=0;strokeWidth=2;" parent="1" source="PPKRKpOMNKUQliqkGIs--25" target="PPKRKpOMNKUQliqkGIs--27" edge="1">
          <mxGeometry relative="1" as="geometry" />
        </mxCell>
        <mxCell id="PPKRKpOMNKUQliqkGIs--34" style="edgeStyle=orthogonalEdgeStyle;rounded=0;orthogonalLoop=1;jettySize=auto;html=1;exitX=1;exitY=0.75;exitDx=0;exitDy=0;entryX=0;entryY=0.5;entryDx=0;entryDy=0;strokeWidth=2;" parent="1" source="PPKRKpOMNKUQliqkGIs--25" target="PPKRKpOMNKUQliqkGIs--31" edge="1">
          <mxGeometry relative="1" as="geometry" />
        </mxCell>
        <mxCell id="PPKRKpOMNKUQliqkGIs--25" value="Ecommerce Store" style="rounded=1;whiteSpace=wrap;html=1;" parent="1" vertex="1">
          <mxGeometry x="-240" y="2640" width="120" height="60" as="geometry" />
        </mxCell>
        <mxCell id="PPKRKpOMNKUQliqkGIs--32" style="edgeStyle=orthogonalEdgeStyle;rounded=0;orthogonalLoop=1;jettySize=auto;html=1;exitX=1;exitY=0.5;exitDx=0;exitDy=0;strokeWidth=2;" parent="1" source="PPKRKpOMNKUQliqkGIs--27" target="PPKRKpOMNKUQliqkGIs--24" edge="1">
          <mxGeometry relative="1" as="geometry" />
        </mxCell>
        <mxCell id="PPKRKpOMNKUQliqkGIs--27" value="Partition 0&lt;br&gt;&lt;br&gt;8888 7777 XXXX XXXX" style="rounded=0;whiteSpace=wrap;html=1;" parent="1" vertex="1">
          <mxGeometry x="-40" y="2630" width="250" height="60" as="geometry" />
        </mxCell>
        <mxCell id="PPKRKpOMNKUQliqkGIs--30" value="FraudDetectorService" style="rounded=1;whiteSpace=wrap;html=1;" parent="1" vertex="1">
          <mxGeometry x="266" y="2720" width="120" height="60" as="geometry" />
        </mxCell>
        <mxCell id="PPKRKpOMNKUQliqkGIs--35" style="edgeStyle=orthogonalEdgeStyle;rounded=0;orthogonalLoop=1;jettySize=auto;html=1;exitX=1;exitY=0.5;exitDx=0;exitDy=0;entryX=0;entryY=0.5;entryDx=0;entryDy=0;strokeWidth=2;" parent="1" source="PPKRKpOMNKUQliqkGIs--31" target="PPKRKpOMNKUQliqkGIs--30" edge="1">
          <mxGeometry relative="1" as="geometry" />
        </mxCell>
        <mxCell id="PPKRKpOMNKUQliqkGIs--31" value="Partition 1&lt;br&gt;&lt;br&gt;9999 5555 XXXX XXXX" style="rounded=0;whiteSpace=wrap;html=1;" parent="1" vertex="1">
          <mxGeometry x="-39" y="2720" width="249" height="60" as="geometry" />
        </mxCell>
        <mxCell id="PPKRKpOMNKUQliqkGIs--36" value="&lt;font style=&quot;font-size: 36px&quot;&gt;UUIDs -&amp;gt; uniformly distributed&lt;/font&gt;" style="text;html=1;align=center;verticalAlign=middle;resizable=0;points=[];autosize=1;" parent="1" vertex="1">
          <mxGeometry x="-428" y="2834" width="500" height="30" as="geometry" />
        </mxCell>
        <mxCell id="PPKRKpOMNKUQliqkGIs--41" style="edgeStyle=orthogonalEdgeStyle;rounded=0;orthogonalLoop=1;jettySize=auto;html=1;exitX=0;exitY=0.5;exitDx=0;exitDy=0;entryX=1;entryY=0.5;entryDx=0;entryDy=0;strokeWidth=2;fillColor=#e1d5e7;strokeColor=#9673a6;" parent="1" source="PPKRKpOMNKUQliqkGIs--37" target="jTadlCwJ3_54qRfa4HgR-71" edge="1">
          <mxGeometry relative="1" as="geometry" />
        </mxCell>
        <mxCell id="PPKRKpOMNKUQliqkGIs--37" value="EbookGeneratorService (2)" style="rounded=1;whiteSpace=wrap;html=1;strokeWidth=2;fillColor=#e1d5e7;strokeColor=#9673a6;" parent="1" vertex="1">
          <mxGeometry x="660" y="1940" width="174" height="70" as="geometry" />
        </mxCell>
        <mxCell id="PPKRKpOMNKUQliqkGIs--42" value="&lt;font style=&quot;font-size: 48px&quot;&gt;Message =&amp;gt; header + body (&lt;b&gt;JSON&lt;/b&gt;, XML, CSV)&lt;/font&gt;" style="text;html=1;strokeColor=none;fillColor=none;align=center;verticalAlign=middle;whiteSpace=wrap;rounded=0;" parent="1" vertex="1">
          <mxGeometry x="-224" y="3050" width="369" height="20" as="geometry" />
        </mxCell>
        <mxCell id="PPKRKpOMNKUQliqkGIs--43" value="&lt;font style=&quot;font-size: 36px&quot;&gt;Document Message&lt;br&gt;Command Message&lt;br&gt;Event Message&lt;/font&gt;" style="text;html=1;strokeColor=none;fillColor=none;align=center;verticalAlign=middle;whiteSpace=wrap;rounded=0;" parent="1" vertex="1">
          <mxGeometry x="244" y="2950" width="356" height="20" as="geometry" />
        </mxCell>
        <mxCell id="PPKRKpOMNKUQliqkGIs--44" value="&lt;span style=&quot;font-size: 36px&quot;&gt;Event Sourcing&lt;br&gt;store the events that happened&lt;br&gt;&lt;/span&gt;" style="text;html=1;strokeColor=none;fillColor=none;align=center;verticalAlign=middle;whiteSpace=wrap;rounded=0;" parent="1" vertex="1">
          <mxGeometry x="218" y="3110" width="356" height="20" as="geometry" />
        </mxCell>
        <mxCell id="PPKRKpOMNKUQliqkGIs--45" value="Apache Avro" style="text;html=1;strokeColor=none;fillColor=none;align=center;verticalAlign=middle;whiteSpace=wrap;rounded=0;" parent="1" vertex="1">
          <mxGeometry x="-120" y="3240" width="130" height="20" as="geometry" />
        </mxCell>
        <mxCell id="bKO2a7ua2q8myTXE1NSv-1" value="USER" style="aspect=fixed;perimeter=ellipsePerimeter;html=1;align=center;shadow=0;dashed=0;image;image=img/lib/ibm/users/user.svg;labelBackgroundColor=#ffffff;strokeColor=#4277BB;strokeWidth=2;fillColor=none;gradientColor=none;fontSize=12;fontColor=#4277BB;" vertex="1" parent="1">
          <mxGeometry x="-136" y="240" width="60" height="60" as="geometry" />
        </mxCell>
        <mxCell id="bKO2a7ua2q8myTXE1NSv-2" value="CATALOG-DB" style="aspect=fixed;perimeter=ellipsePerimeter;html=1;align=center;shadow=0;dashed=0;image;image=img/lib/ibm/data/data_services.svg;labelBackgroundColor=#ffffff;strokeColor=#4277BB;strokeWidth=2;fillColor=none;gradientColor=none;fontSize=12;fontColor=#4277BB;spacingTop=3;" vertex="1" parent="1">
          <mxGeometry x="-29" y="400" width="60" height="60" as="geometry" />
        </mxCell>
        <mxCell id="bKO2a7ua2q8myTXE1NSv-3" value="ORDER-DB&lt;br style=&quot;font-size: 6px;&quot;&gt;" style="aspect=fixed;perimeter=ellipsePerimeter;html=1;align=center;shadow=0;dashed=0;image;image=img/lib/ibm/data/data_services.svg;labelBackgroundColor=#ffffff;strokeColor=#4277BB;strokeWidth=2;fillColor=none;gradientColor=none;fontSize=6;fontColor=#4277BB;spacingTop=3;" vertex="1" parent="1">
          <mxGeometry x="379.5" y="255" width="30" height="30" as="geometry" />
        </mxCell>
        <mxCell id="bKO2a7ua2q8myTXE1NSv-4" value="" style="endArrow=classic;html=1;rounded=0;exitX=1;exitY=0.5;exitDx=0;exitDy=0;entryX=0.75;entryY=0;entryDx=0;entryDy=0;" edge="1" parent="1" source="bKO2a7ua2q8myTXE1NSv-1" target="bKO2a7ua2q8myTXE1NSv-8">
          <mxGeometry width="50" height="50" relative="1" as="geometry">
            <mxPoint x="380" y="270" as="sourcePoint" />
            <mxPoint x="20" y="270" as="targetPoint" />
          </mxGeometry>
        </mxCell>
        <mxCell id="bKO2a7ua2q8myTXE1NSv-6" value="DISCOVERY&lt;div&gt;SERVICE&lt;/div&gt;" style="aspect=fixed;perimeter=ellipsePerimeter;html=1;align=center;shadow=0;dashed=0;image;image=img/lib/ibm/analytics/analytics.svg;labelBackgroundColor=#ffffff;strokeColor=#4277BB;strokeWidth=2;fillColor=none;gradientColor=none;fontSize=12;fontColor=#4277BB;spacingTop=3;" vertex="1" parent="1">
          <mxGeometry x="-290" y="20" width="60" height="60" as="geometry" />
        </mxCell>
        <mxCell id="bKO2a7ua2q8myTXE1NSv-7" value="&lt;font color=&quot;#4277bb&quot;&gt;CATALOG&lt;br&gt;SERVICE&lt;/font&gt;" style="verticalLabelPosition=bottom;verticalAlign=top;html=1;shape=mxgraph.flowchart.on-page_reference;fillColor=#dae8fc;strokeColor=#6c8ebf;" vertex="1" parent="1">
          <mxGeometry x="-29" y="240" width="60" height="60" as="geometry" />
        </mxCell>
        <mxCell id="bKO2a7ua2q8myTXE1NSv-8" value="&lt;font style=&quot;font-size: 9px&quot; color=&quot;#3333ff&quot;&gt;&lt;b&gt;REST&lt;br&gt;API&lt;/b&gt;&lt;/font&gt;" style="whiteSpace=wrap;html=1;aspect=fixed;fillColor=#fff2cc;strokeColor=#d6b656;" vertex="1" parent="1">
          <mxGeometry x="-50" y="270" width="30" height="30" as="geometry" />
        </mxCell>
        <mxCell id="bKO2a7ua2q8myTXE1NSv-14" value="" style="endArrow=classic;startArrow=classic;html=1;rounded=0;fontSize=9;fontColor=#4277BB;entryX=0.5;entryY=1;entryDx=0;entryDy=0;entryPerimeter=0;exitX=0.5;exitY=0;exitDx=0;exitDy=0;strokeColor=default;strokeWidth=1;jumpSize=4;opacity=60;" edge="1" parent="1" source="bKO2a7ua2q8myTXE1NSv-2" target="bKO2a7ua2q8myTXE1NSv-7">
          <mxGeometry width="50" height="50" relative="1" as="geometry">
            <mxPoint x="50" y="410" as="sourcePoint" />
            <mxPoint x="100" y="360" as="targetPoint" />
          </mxGeometry>
        </mxCell>
        <mxCell id="bKO2a7ua2q8myTXE1NSv-53" style="edgeStyle=orthogonalEdgeStyle;rounded=0;jumpSize=4;orthogonalLoop=1;jettySize=auto;html=1;exitX=0.145;exitY=0.855;exitDx=0;exitDy=0;exitPerimeter=0;entryX=0;entryY=0.5;entryDx=2.7;entryDy=0;entryPerimeter=0;fontSize=6;fontColor=default;strokeColor=default;strokeWidth=1;opacity=60;" edge="1" parent="1" source="bKO2a7ua2q8myTXE1NSv-15" target="bKO2a7ua2q8myTXE1NSv-51">
          <mxGeometry relative="1" as="geometry" />
        </mxCell>
        <mxCell id="bKO2a7ua2q8myTXE1NSv-15" value="&lt;font color=&quot;#4277bb&quot;&gt;ORDER&lt;br&gt;SERVICE&lt;/font&gt;" style="verticalLabelPosition=bottom;verticalAlign=top;html=1;shape=mxgraph.flowchart.on-page_reference;fillColor=#dae8fc;strokeColor=#6c8ebf;" vertex="1" parent="1">
          <mxGeometry x="236" y="240" width="60" height="60" as="geometry" />
        </mxCell>
        <mxCell id="bKO2a7ua2q8myTXE1NSv-57" style="edgeStyle=orthogonalEdgeStyle;rounded=0;jumpSize=4;orthogonalLoop=1;jettySize=auto;html=1;exitX=1;exitY=0.5;exitDx=0;exitDy=0;exitPerimeter=0;fontSize=6;fontColor=default;strokeColor=default;strokeWidth=1;opacity=60;" edge="1" parent="1" source="bKO2a7ua2q8myTXE1NSv-18" target="bKO2a7ua2q8myTXE1NSv-52">
          <mxGeometry relative="1" as="geometry">
            <mxPoint x="410" y="370" as="targetPoint" />
            <Array as="points">
              <mxPoint x="410" y="480" />
              <mxPoint x="410" y="395" />
            </Array>
          </mxGeometry>
        </mxCell>
        <mxCell id="bKO2a7ua2q8myTXE1NSv-18" value="&lt;font color=&quot;#4277bb&quot;&gt;WALLET&lt;br&gt;SERVICE&lt;/font&gt;" style="verticalLabelPosition=bottom;verticalAlign=top;html=1;shape=mxgraph.flowchart.on-page_reference;fillColor=#dae8fc;strokeColor=#6c8ebf;" vertex="1" parent="1">
          <mxGeometry x="237" y="450" width="60" height="60" as="geometry" />
        </mxCell>
        <mxCell id="bKO2a7ua2q8myTXE1NSv-50" style="edgeStyle=orthogonalEdgeStyle;rounded=0;jumpSize=4;orthogonalLoop=1;jettySize=auto;html=1;exitX=1;exitY=0.5;exitDx=0;exitDy=0;exitPerimeter=0;fontSize=6;fontColor=default;strokeColor=default;strokeWidth=1;opacity=60;entryX=1;entryY=0.5;entryDx=-2.7;entryDy=0;entryPerimeter=0;" edge="1" parent="1" source="bKO2a7ua2q8myTXE1NSv-19" target="bKO2a7ua2q8myTXE1NSv-29">
          <mxGeometry relative="1" as="geometry">
            <mxPoint x="420" y="190" as="targetPoint" />
          </mxGeometry>
        </mxCell>
        <mxCell id="bKO2a7ua2q8myTXE1NSv-19" value="&lt;font color=&quot;#4277bb&quot;&gt;WAREHOUSE&lt;br&gt;SERVICE&lt;/font&gt;" style="verticalLabelPosition=bottom;verticalAlign=top;html=1;shape=mxgraph.flowchart.on-page_reference;fillColor=#dae8fc;strokeColor=#6c8ebf;" vertex="1" parent="1">
          <mxGeometry x="237" y="40" width="60" height="60" as="geometry" />
        </mxCell>
        <mxCell id="bKO2a7ua2q8myTXE1NSv-20" value="&lt;font style=&quot;font-size: 9px&quot; color=&quot;#3333ff&quot;&gt;&lt;b&gt;REST&lt;br&gt;API&lt;/b&gt;&lt;/font&gt;" style="whiteSpace=wrap;html=1;aspect=fixed;fillColor=#fff2cc;strokeColor=#d6b656;" vertex="1" parent="1">
          <mxGeometry x="218" y="260" width="30" height="30" as="geometry" />
        </mxCell>
        <mxCell id="bKO2a7ua2q8myTXE1NSv-21" value="&lt;font style=&quot;font-size: 9px&quot; color=&quot;#3333ff&quot;&gt;&lt;b&gt;REST&lt;br&gt;API&lt;/b&gt;&lt;/font&gt;" style="whiteSpace=wrap;html=1;aspect=fixed;fillColor=#fff2cc;strokeColor=#d6b656;" vertex="1" parent="1">
          <mxGeometry x="224" y="480" width="30" height="30" as="geometry" />
        </mxCell>
        <mxCell id="bKO2a7ua2q8myTXE1NSv-22" value="&lt;font style=&quot;font-size: 9px&quot; color=&quot;#3333ff&quot;&gt;&lt;b&gt;REST&lt;br&gt;API&lt;/b&gt;&lt;/font&gt;" style="whiteSpace=wrap;html=1;aspect=fixed;fillColor=#fff2cc;strokeColor=#d6b656;" vertex="1" parent="1">
          <mxGeometry x="220" y="70" width="30" height="30" as="geometry" />
        </mxCell>
        <mxCell id="bKO2a7ua2q8myTXE1NSv-45" style="edgeStyle=orthogonalEdgeStyle;rounded=0;jumpSize=4;orthogonalLoop=1;jettySize=auto;html=1;exitX=1;exitY=0.5;exitDx=-2.7;exitDy=0;exitPerimeter=0;fontSize=6;fontColor=default;strokeColor=default;strokeWidth=1;opacity=60;" edge="1" parent="1" source="bKO2a7ua2q8myTXE1NSv-23" target="bKO2a7ua2q8myTXE1NSv-19">
          <mxGeometry relative="1" as="geometry">
            <mxPoint x="270" y="185.1428571428571" as="targetPoint" />
            <Array as="points">
              <mxPoint x="267" y="185" />
            </Array>
          </mxGeometry>
        </mxCell>
        <mxCell id="bKO2a7ua2q8myTXE1NSv-23" value="&lt;font style=&quot;font-size: 9px&quot;&gt;order-items-availability-requested&lt;/font&gt;" style="strokeWidth=1;outlineConnect=0;dashed=0;align=center;html=1;fontSize=9;shape=mxgraph.eip.messageChannel;verticalLabelPosition=bottom;labelBackgroundColor=default;verticalAlign=top;fillColor=default;strokeColor=none;fontColor=default;" vertex="1" parent="1">
          <mxGeometry x="173" y="180" width="70" height="10" as="geometry" />
        </mxCell>
        <mxCell id="bKO2a7ua2q8myTXE1NSv-49" style="edgeStyle=orthogonalEdgeStyle;rounded=0;jumpSize=4;orthogonalLoop=1;jettySize=auto;html=1;exitX=1;exitY=0.5;exitDx=-2.7;exitDy=0;exitPerimeter=0;entryX=1;entryY=0.352;entryDx=0;entryDy=0;entryPerimeter=0;fontSize=6;fontColor=default;strokeColor=default;strokeWidth=1;opacity=60;" edge="1" parent="1" source="bKO2a7ua2q8myTXE1NSv-29" target="bKO2a7ua2q8myTXE1NSv-15">
          <mxGeometry relative="1" as="geometry" />
        </mxCell>
        <mxCell id="bKO2a7ua2q8myTXE1NSv-29" value="&lt;font style=&quot;font-size: 9px&quot;&gt;order-items-availability-produced&lt;br&gt;&lt;/font&gt;" style="strokeWidth=1;outlineConnect=0;dashed=0;align=center;html=1;fontSize=9;shape=mxgraph.eip.messageChannel;verticalLabelPosition=bottom;labelBackgroundColor=#ffffff;verticalAlign=top;strokeColor=none;" vertex="1" parent="1">
          <mxGeometry x="346" y="180" width="67" height="10" as="geometry" />
        </mxCell>
        <mxCell id="bKO2a7ua2q8myTXE1NSv-32" value="&lt;font color=&quot;#4277bb&quot;&gt;MAIL&lt;br&gt;SERVICE&lt;/font&gt;" style="verticalLabelPosition=bottom;verticalAlign=top;html=1;shape=mxgraph.flowchart.on-page_reference;fillColor=#dae8fc;strokeColor=#6c8ebf;" vertex="1" parent="1">
          <mxGeometry x="-29" y="60" width="60" height="60" as="geometry" />
        </mxCell>
        <mxCell id="bKO2a7ua2q8myTXE1NSv-38" value="" style="endArrow=classic;startArrow=classic;html=1;rounded=0;fontSize=6;fontColor=default;strokeColor=default;strokeWidth=1;opacity=60;jumpSize=4;entryX=0;entryY=0.5;entryDx=0;entryDy=0;exitX=0.983;exitY=0.578;exitDx=0;exitDy=0;exitPerimeter=0;" edge="1" parent="1" source="bKO2a7ua2q8myTXE1NSv-7" target="bKO2a7ua2q8myTXE1NSv-20">
          <mxGeometry width="50" height="50" relative="1" as="geometry">
            <mxPoint x="110" y="310" as="sourcePoint" />
            <mxPoint x="160" y="260" as="targetPoint" />
          </mxGeometry>
        </mxCell>
        <mxCell id="bKO2a7ua2q8myTXE1NSv-42" value="" style="endArrow=classic;startArrow=classic;html=1;rounded=0;fontSize=6;fontColor=default;strokeColor=default;strokeWidth=1;opacity=60;jumpSize=4;entryX=-0.114;entryY=0.314;entryDx=0;entryDy=0;entryPerimeter=0;exitX=0;exitY=0.5;exitDx=0;exitDy=0;" edge="1" parent="1" source="bKO2a7ua2q8myTXE1NSv-21">
          <mxGeometry width="50" height="50" relative="1" as="geometry">
            <mxPoint x="217" y="421" as="sourcePoint" />
            <mxPoint x="216.57999999999993" y="80.41999999999999" as="targetPoint" />
            <Array as="points">
              <mxPoint x="120" y="495" />
              <mxPoint x="120" y="81" />
            </Array>
          </mxGeometry>
        </mxCell>
        <mxCell id="bKO2a7ua2q8myTXE1NSv-44" value="" style="endArrow=classic;html=1;rounded=0;fontSize=6;fontColor=default;strokeColor=default;strokeWidth=1;opacity=60;jumpSize=4;exitX=0.145;exitY=0.145;exitDx=0;exitDy=0;exitPerimeter=0;entryX=0;entryY=0.5;entryDx=2.7;entryDy=0;entryPerimeter=0;" edge="1" parent="1" source="bKO2a7ua2q8myTXE1NSv-15" target="bKO2a7ua2q8myTXE1NSv-23">
          <mxGeometry width="50" height="50" relative="1" as="geometry">
            <mxPoint x="290" y="300" as="sourcePoint" />
            <mxPoint x="150" y="160" as="targetPoint" />
            <Array as="points">
              <mxPoint x="150" y="250" />
              <mxPoint x="150" y="185" />
            </Array>
          </mxGeometry>
        </mxCell>
        <mxCell id="bKO2a7ua2q8myTXE1NSv-54" style="edgeStyle=orthogonalEdgeStyle;rounded=0;jumpSize=4;orthogonalLoop=1;jettySize=auto;html=1;exitX=1;exitY=0.5;exitDx=-2.7;exitDy=0;exitPerimeter=0;fontSize=6;fontColor=default;strokeColor=default;strokeWidth=1;opacity=60;" edge="1" parent="1" source="bKO2a7ua2q8myTXE1NSv-51" target="bKO2a7ua2q8myTXE1NSv-18">
          <mxGeometry relative="1" as="geometry" />
        </mxCell>
        <mxCell id="bKO2a7ua2q8myTXE1NSv-51" value="&lt;font style=&quot;font-size: 9px&quot;&gt;order-budget-availability-requested&lt;/font&gt;" style="strokeWidth=1;outlineConnect=0;dashed=0;align=center;html=1;fontSize=9;shape=mxgraph.eip.messageChannel;verticalLabelPosition=bottom;labelBackgroundColor=default;verticalAlign=top;fillColor=default;strokeColor=none;fontColor=default;" vertex="1" parent="1">
          <mxGeometry x="163" y="390" width="70" height="10" as="geometry" />
        </mxCell>
        <mxCell id="bKO2a7ua2q8myTXE1NSv-56" style="edgeStyle=orthogonalEdgeStyle;rounded=0;jumpSize=4;orthogonalLoop=1;jettySize=auto;html=1;exitX=1;exitY=0.5;exitDx=-2.7;exitDy=0;exitPerimeter=0;entryX=0.855;entryY=0.855;entryDx=0;entryDy=0;entryPerimeter=0;fontSize=6;fontColor=default;strokeColor=default;strokeWidth=1;opacity=60;" edge="1" parent="1" source="bKO2a7ua2q8myTXE1NSv-52" target="bKO2a7ua2q8myTXE1NSv-15">
          <mxGeometry relative="1" as="geometry" />
        </mxCell>
        <mxCell id="bKO2a7ua2q8myTXE1NSv-52" value="&lt;font style=&quot;font-size: 9px&quot;&gt;order-budget-availability-produced&lt;br&gt;&lt;/font&gt;" style="strokeWidth=1;outlineConnect=0;dashed=0;align=center;html=1;fontSize=9;shape=mxgraph.eip.messageChannel;verticalLabelPosition=bottom;labelBackgroundColor=#ffffff;verticalAlign=top;strokeColor=none;" vertex="1" parent="1">
          <mxGeometry x="336" y="390" width="67" height="10" as="geometry" />
        </mxCell>
      </root>
    </mxGraphModel>
  </diagram>
</mxfile>
